<svg width="49" height="50" viewBox="0 0 49 50" fill="none" xmlns="http://www.w3.org/2000/svg">
<path d="M18.2822 45.1955L20.1214 41.3953L20.7064 41.4949L21.0877 44.8705L22.599 41.8171L23.1793 41.91L23.616 46.1036L23.0597 46.0089L22.7651 42.4709L21.2244 45.6964L20.6394 45.5968L20.2969 42.0625L18.8443 45.2912L18.2822 45.1955Z" fill="#DFC6B3"/>
<path d="M14.2588 39.6889L15.7645 40.6167L16.515 40.0199L16.9905 40.3129L13.6272 42.9762L13.1072 42.6557L13.9791 38.4573L14.4545 38.7503L14.2588 39.6889ZM14.1618 40.1348L13.7115 42.2628L15.4099 40.9039L14.1618 40.1348Z" fill="#DFC6B3"/>
<path d="M7.25885 37.3575L7.58844 37.0805L8.2996 37.9268L11.0744 35.5949L11.415 36.0002L8.6402 38.3321L9.3551 39.1828L9.02551 39.4597L7.25885 37.3575Z" fill="#DFC6B3"/>
<path d="M7.07042 33.3972C6.70137 33.5397 6.33818 33.5843 5.98083 33.5311C5.61988 33.4792 5.30099 33.3425 5.02417 33.121C4.74595 32.8958 4.53908 32.6077 4.40354 32.2568C4.24425 31.8443 4.20472 31.4459 4.28494 31.0615C4.36517 30.6771 4.56075 30.3438 4.87168 30.0616L5.10014 30.6531C4.91272 30.8461 4.79593 31.0658 4.74976 31.3123C4.7022 31.5552 4.73152 31.8141 4.83771 32.0891C4.93971 32.3532 5.09274 32.5665 5.2968 32.7288C5.50086 32.8911 5.73991 32.988 6.01396 33.0194C6.2844 33.0521 6.57157 33.0098 6.8755 32.8925C7.1758 32.7765 7.41686 32.6148 7.59869 32.4074C7.77691 32.2013 7.887 31.9696 7.92897 31.7123C7.97094 31.4549 7.94093 31.1942 7.83893 30.9301C7.73273 30.6551 7.58221 30.443 7.38736 30.2937C7.18749 30.1422 6.95333 30.058 6.68487 30.0411L6.45641 29.4496C6.87272 29.4509 7.23975 29.567 7.55752 29.7977C7.87166 30.0297 8.10838 30.352 8.26767 30.7645C8.40321 31.1154 8.44546 31.4671 8.39443 31.8194C8.33838 32.1695 8.19596 32.4844 7.96717 32.764C7.73838 33.0436 7.43946 33.2547 7.07042 33.3972Z" fill="#DFC6B3"/>
<path d="M2.96864 23.3683L7.02308 23.2998L7.03203 23.8291L5.19386 23.8602L5.22878 25.9252L7.06695 25.8941L7.0759 26.4235L3.02146 26.492L3.01251 25.9627L4.79251 25.9326L4.75759 23.8676L2.97759 23.8977L2.96864 23.3683Z" fill="#DFC6B3"/>
<path d="M10.0565 14.5314L9.79538 14.9919L5.93632 15.2513L8.74499 16.8441L8.48383 17.3046L4.95148 15.3014L5.21264 14.8409L9.06665 14.5786L6.26303 12.9887L6.52419 12.5282L10.0565 14.5314Z" fill="#DFC6B3"/>
<path d="M13.2028 11.1962C12.9159 11.4395 12.5976 11.5949 12.2481 11.6624C11.896 11.727 11.5489 11.6985 11.2067 11.5767C10.8649 11.4495 10.5661 11.2351 10.3103 10.9333C10.0544 10.6316 9.89294 10.3032 9.82585 9.94821C9.7592 9.58774 9.78777 9.24061 9.91156 8.90682C10.0328 8.57008 10.2369 8.28005 10.5239 8.03674C10.8138 7.79092 11.1348 7.63572 11.4868 7.57113C11.8364 7.50359 12.1808 7.53193 12.52 7.65617C12.8593 7.78041 13.1581 7.99487 13.4164 8.29958C13.6748 8.60428 13.8375 8.93413 13.9046 9.28913C13.9717 9.64413 13.9446 9.99001 13.8233 10.3268C13.6996 10.6605 13.4927 10.9503 13.2028 11.1962ZM12.9056 10.8456C13.1215 10.6625 13.2726 10.4479 13.3589 10.2019C13.4482 9.95328 13.4626 9.69442 13.4022 9.42527C13.3448 9.15362 13.212 8.89502 13.0038 8.64949C12.7931 8.40099 12.5597 8.22768 12.3036 8.12955C12.0479 8.02596 11.7917 7.99661 11.5348 8.04152C11.2779 8.08642 11.04 8.20168 10.8211 8.38729C10.6022 8.57291 10.4496 8.78875 10.3633 9.03482C10.277 9.28088 10.2626 9.53974 10.3201 9.81139C10.3779 10.0776 10.5122 10.3349 10.7229 10.5834C10.9311 10.829 11.1631 11.0035 11.4187 11.1071C11.6773 11.2082 11.935 11.2363 12.1919 11.1914C12.4517 11.144 12.6896 11.0287 12.9056 10.8456Z" fill="#DFC6B3"/>
<path d="M20.4611 3.16181L20.5748 7.38215L20.0095 7.56262L18.119 4.74006L18.1805 8.1465L17.6225 8.33074L15.3068 4.80728L15.8444 4.63565L17.7325 7.64218L17.6179 4.06947L18.1832 3.889L20.1121 6.87029L19.9179 3.3352L20.4611 3.16181Z" fill="#DFC6B3"/>
<path d="M33.5377 4.7646L31.185 8.27014L30.6197 8.08967L30.7144 4.69384L28.7907 7.5058L28.2292 7.33264L28.3834 3.11913L28.921 3.29076L28.7178 6.83516L30.6946 3.85694L31.2599 4.03741L31.1045 7.58488L32.9946 4.59121L33.5377 4.7646Z" fill="#DFC6B3"/>
<path d="M36.7511 10.7797L35.39 9.65034L34.5635 10.1363L34.1337 9.77963L37.8364 7.61309L38.3065 8.00317L36.8558 12.0384L36.426 11.6817L36.7511 10.7797ZM36.9096 10.3518L37.6532 8.30772L35.7813 9.41562L36.9096 10.3518Z" fill="#DFC6B3"/>
<path d="M43.3559 14.0673L42.9908 14.2955L42.4051 13.3581L39.3313 15.2787L39.0508 14.8298L42.1245 12.9091L41.5357 11.9667L41.9008 11.7386L43.3559 14.0673Z" fill="#DFC6B3"/>
<path d="M42.9883 18.0157C43.3736 17.9263 43.7395 17.9329 44.0859 18.0356C44.436 18.1375 44.7326 18.3174 44.9757 18.5755C45.2197 18.8374 45.3843 19.1516 45.4694 19.5181C45.5694 19.9488 45.5528 20.3488 45.4196 20.7182C45.2863 21.0876 45.046 21.3902 44.6987 21.6262L44.5552 21.0085C44.7678 20.8436 44.9142 20.6424 44.9944 20.4048C45.0755 20.171 45.0827 19.9105 45.016 19.6233C44.952 19.3475 44.8303 19.115 44.6509 18.9257C44.4716 18.7364 44.2484 18.6071 43.9815 18.5377C43.7183 18.4674 43.428 18.4691 43.1107 18.5428C42.7971 18.6156 42.5358 18.742 42.3267 18.9219C42.1214 19.101 41.98 19.315 41.9024 19.564C41.8249 19.8129 41.8181 20.0753 41.8821 20.3511C41.9488 20.6382 42.0682 20.8693 42.2402 21.0444C42.4169 21.2223 42.637 21.3385 42.9005 21.3927L43.0439 22.0104C42.6319 21.9508 42.2847 21.7846 42.0023 21.5117C41.7238 21.238 41.5345 20.8857 41.4344 20.455C41.3493 20.0886 41.3567 19.7345 41.4565 19.3928C41.561 19.0539 41.7461 18.7621 42.0117 18.5173C42.2774 18.2724 42.6029 18.1052 42.9883 18.0157Z" fill="#DFC6B3"/>
<path d="M45.6468 28.5192L41.6226 28.0198L41.6878 27.4944L43.5123 27.7208L43.7666 25.6712L41.9422 25.4448L42.0074 24.9194L46.0315 25.4188L45.9663 25.9442L44.1996 25.7249L43.9453 27.7745L45.712 27.9938L45.6468 28.5192Z" fill="#DFC6B3"/>
<path d="M37.3922 36.2778L37.7152 35.8583L41.5726 36.1414L39.0144 34.1713L39.3374 33.7518L42.5548 36.2295L42.2317 36.649L38.3789 36.3695L40.9325 38.336L40.6095 38.7555L37.3922 36.2778Z" fill="#DFC6B3"/>
<path d="M33.8101 39.1397C34.1283 38.939 34.4651 38.8296 34.8207 38.8116C35.1783 38.7969 35.518 38.8738 35.8398 39.0422C36.1604 39.216 36.4263 39.4701 36.6374 39.8047C36.8485 40.1393 36.9625 40.487 36.9792 40.8479C36.9948 41.2142 36.9179 41.5539 36.7487 41.8671C36.5815 42.1835 36.3388 42.4421 36.0206 42.6429C35.6992 42.8457 35.3596 42.9545 35.002 42.9692C34.6465 42.9872 34.3094 42.9109 33.9909 42.7405C33.6723 42.57 33.4065 42.3158 33.1933 41.978C32.9801 41.6401 32.8651 41.2907 32.8484 40.9298C32.8316 40.5689 32.9068 40.2302 33.074 39.9138C33.2433 39.6006 33.4887 39.3426 33.8101 39.1397ZM34.0554 39.5284C33.8159 39.6795 33.6363 39.8709 33.5164 40.1024C33.3932 40.3361 33.3427 40.5904 33.3649 40.8653C33.3838 41.1423 33.4791 41.417 33.6509 41.6892C33.8247 41.9647 34.0316 42.169 34.2714 42.302C34.5101 42.4404 34.7597 42.5053 35.0203 42.4967C35.2809 42.4882 35.5326 42.4074 35.7753 42.2542C36.0181 42.1011 36.1994 41.9087 36.3192 41.6771C36.4391 41.4455 36.4896 41.1913 36.4708 40.9142C36.4507 40.6426 36.3537 40.369 36.1798 40.0934C36.0081 39.8212 35.8028 39.6159 35.5642 39.4775C35.3223 39.3413 35.071 39.2774 34.8104 39.2859C34.5465 39.2965 34.2948 39.3773 34.0554 39.5284Z" fill="#DFC6B3"/>
<path d="M25.4992 46.0796L25.9771 41.8849L26.5621 41.7853L28.039 44.8446L28.4548 41.463L29.0331 41.3587L30.833 45.1715L30.2767 45.2662L28.8278 42.0251L28.4414 45.5787L27.8564 45.6783L26.3636 42.4565L26.0613 45.9839L25.4992 46.0796Z" fill="#DFC6B3"/>
</svg>
